<svg width="430" height="111" viewBox="0 0 430 111" fill="none" xmlns="http://www.w3.org/2000/svg">
<path d="M227.045 61.8587V2.15086H237.799V61.6867H227.045V61.8587Z" fill="white"/>
<path d="M289.463 11.8297V61.8587H278.536V11.8297H257.372V2.15086H310.799V11.8297H289.463Z" fill="white"/>
<path d="M430 61.8587H386.251V2.15086H397.006V52.1799H430V61.8587Z" fill="white"/>
<path d="M118.211 35.4892C123.761 35.1451 128.062 33.3383 131.289 30.2841C134.515 27.2299 135.934 23.4874 135.934 18.7985C135.934 15.5722 135.031 12.518 133.439 10.023C131.805 7.52801 129.482 5.54922 126.428 4.30172C123.373 2.88216 119.803 2.15086 115.501 2.15086H86.1205V11.8297H96.8748H99.5849H115.544C118.598 11.8297 120.921 12.389 122.556 13.6365C124.191 14.884 125.051 16.5186 125.051 18.8415C125.051 20.9924 124.148 22.7991 122.556 24.0466C120.921 25.2941 118.598 26.0254 115.544 26.0254H99.5849H96.8748H86.1205V61.9018H96.8748V35.7043H105.478L124.664 61.6867H138.3L118.211 35.4892Z" fill="white"/>
<path d="M202.525 30.8433V30.6713C203.945 29.4238 205.02 27.617 205.923 25.4662C206.827 23.3153 207.171 21.1645 207.171 18.8415C207.171 15.6152 206.268 12.7331 204.676 10.2381C203.041 7.7431 200.718 5.76431 197.492 4.30172C194.438 2.88216 190.867 2.15086 186.566 2.15086H157.529V11.8297H168.283H171.854H186.91C189.964 11.8297 192.287 12.389 193.922 13.6365C195.556 14.884 196.417 16.5186 196.417 18.8415C196.417 21.1645 195.685 22.9712 194.094 24.2187C192.459 25.4662 190.308 26.0254 187.469 26.0254H171.854H168.283H157.529V61.9018H186.738C190.867 61.9018 194.438 60.9984 197.492 59.1917C200.546 57.385 203.041 55.2341 204.676 52.395C206.311 49.5128 207.171 46.4586 207.171 43.2323C207.171 41.0814 206.612 38.7585 205.751 36.4356C204.891 33.8976 203.816 32.0908 202.525 30.8433ZM193.75 49.5128C191.943 51.3195 189.792 52.2229 186.738 52.2229H168.283V35.8764H187.469C190.351 35.8764 192.502 36.4356 194.094 37.6831C195.513 38.9306 196.417 40.7373 196.417 43.0602C196.288 45.5552 195.556 47.7061 193.75 49.5128Z" fill="white"/>
<path d="M347.88 2.15086H337.126V2.32293L351.494 35.8333H321.683L309.896 61.8157H321.726L329.254 45.6843H355.924L363.28 61.8157H375.11L347.88 2.15086Z" fill="white"/>
<path d="M4.04364 110.253V82.8511H9.07665V110.296H4.04364V110.253Z" fill="white"/>
<path d="M50.8894 110.253H46.7597L31.7037 91.2395V110.253H26.7137V82.8511H31.0154L46.0714 101.693V82.8511H51.1044V110.296H50.8894V110.253Z" fill="white"/>
<path d="M80.3561 87.3249V110.253H75.3231V87.3249H65.4722V82.8511H90.035V87.3249H80.3561Z" fill="white"/>
<path d="M127.675 110.253H106.166V82.8511H127.331V87.3249H111.027V94.1216H125.008V98.5954H111.027V105.779H127.675V110.253Z" fill="white"/>
<path d="M164.928 110.253H144.667V82.8511H149.7V105.779H164.928V110.253Z" fill="white"/>
<path d="M200.503 110.253H180.414V82.8511H185.447V105.779H200.675V110.253H200.503Z" fill="white"/>
<path d="M217.022 110.253V82.8511H222.055V110.296H217.022V110.253Z" fill="white"/>
<path d="M267.051 104.36C266.32 105.263 265.803 105.779 265.416 106.166C265.416 106.339 265.244 106.339 265.244 106.339C264.169 107.414 262.921 108.317 261.459 108.834C260.039 109.35 258.404 109.909 256.813 110.253L256.081 110.425C255.737 110.425 255.178 110.425 254.662 110.425H253.586C250.704 110.425 248.037 109.694 245.714 108.618C243.391 107.371 241.585 105.736 240.337 103.585C239.09 101.435 238.358 98.9396 238.358 96.2295C238.358 93.5194 239.09 91.0244 240.337 88.8735C241.585 86.7227 243.563 85.088 245.886 83.8405C248.209 82.593 250.919 82.0338 253.974 82.0338C257.2 82.0338 260.254 82.9372 262.921 84.5288C265.631 86.1635 267.567 88.4864 268.858 91.5406H263.48C262.577 89.906 261.33 88.6585 259.695 87.9702C258.06 87.0668 256.297 86.7227 254.146 86.7227C251.995 86.7227 250.36 87.0668 248.769 87.9702C247.134 88.8735 245.886 89.949 244.983 91.3685C244.08 92.7881 243.735 94.5948 243.735 96.4016C243.735 98.2083 244.08 99.7999 244.811 101.262C245.714 102.682 246.962 103.973 248.596 104.661C250.231 105.392 251.823 105.908 253.802 106.08H254.361C255.78 106.08 257.243 105.908 258.49 105.349C259.738 104.833 260.985 104.102 262.061 103.198C263.136 102.123 263.868 100.875 264.212 99.4128H253.457V94.939H269.589V95.6703C269.589 96.0144 269.589 96.5736 269.589 97.0898C269.202 99.8859 268.513 102.209 267.051 104.36Z" fill="white"/>
<path d="M306.67 110.253H285.161V82.8511H306.326V87.3249H290.194V94.1216H304.175V98.5954H290.194V105.779H306.885V110.253H306.67Z" fill="white"/>
<path d="M346.977 110.253H342.847L327.791 91.2395V110.253H322.758V82.8511H327.06L342.116 101.693V82.8511H347.149V110.296H346.977V110.253Z" fill="white"/>
<path d="M391.887 101.133L390.639 103.628C389.005 105.951 387.241 107.758 385.09 108.834C382.939 109.909 380.444 110.64 377.39 110.64H376.659C373.776 110.64 371.109 109.909 368.787 108.834C366.464 107.586 364.657 105.951 363.409 103.801C362.162 101.65 361.431 99.1547 361.431 96.4446C361.431 93.7345 362.162 91.2395 363.409 89.0886C364.657 86.9378 366.636 85.3031 368.959 84.0556C371.282 82.8081 373.992 82.2489 377.046 82.2489C380.272 82.2489 383.326 83.1522 385.993 84.7439C388.703 86.3785 390.639 88.7015 391.93 91.7557H386.553C385.649 90.121 384.402 88.8735 382.767 88.1853C381.132 87.2819 379.369 86.9378 377.218 86.9378C375.067 86.9378 373.432 87.2819 371.841 88.1853C370.206 89.0886 368.959 90.1641 368.055 91.5836C367.152 93.0032 366.808 94.8099 366.808 96.6166C366.808 98.4234 367.152 100.015 367.883 101.478C368.787 102.897 370.034 104.188 371.669 104.876C373.303 105.607 374.895 106.123 376.874 106.296H377.605C379.584 106.296 381.175 105.779 382.982 104.876C384.617 103.973 385.864 102.897 386.768 101.306L391.887 101.133Z" fill="white"/>
<path d="M428.71 110.253H407.201V82.8511H428.365V87.3249H412.234V94.1216H426.215V98.5954H412.234V105.779H428.925V110.253H428.71Z" fill="white"/>
<path d="M33.4244 0C28.7785 0 24.3908 0.946379 20.3471 2.66707C23.1863 4.60284 25.4232 7.39896 26.7137 10.6683C28.8215 10.066 31.1014 9.72189 33.4244 9.72189C46.5446 9.72189 57.2129 20.3471 57.2129 33.5104C57.2129 46.6737 46.5876 57.2989 33.4244 57.2989C20.6483 57.2989 10.1951 47.1899 9.67887 34.5428C6.10844 34.3707 2.79612 33.1232 0.0860344 31.1014C0.0430172 31.9188 0 32.7361 0 33.5534C0 52.0078 14.97 66.9778 33.4244 66.9778C51.8788 66.9778 66.8487 52.0078 66.8487 33.5534C66.8487 15.099 51.9218 0 33.4244 0Z" fill="white"/>
<path d="M10.5392 24.7349C14.7979 24.7349 18.2393 21.2935 18.2393 17.0348C18.2393 12.7761 14.7979 9.33474 10.5392 9.33474C6.28049 9.33474 2.83911 12.7761 2.83911 17.0348C2.83911 21.2935 6.28049 24.7349 10.5392 24.7349Z" fill="white"/>
</svg>
